<svg width="19" height="17" viewBox="0 0 19 17" fill="none" xmlns="http://www.w3.org/2000/svg">
<path d="M13.9531 0.5C16.5106 0.5 18.4999 2.61558 18.5 5.54785C18.5 7.1047 17.8898 8.43547 16.7471 9.83301C15.8805 10.8928 14.7288 11.9671 13.3379 13.1885L11.8691 14.4639C11.5211 14.7645 11.1494 15.0857 10.7617 15.4229L9.55957 16.4775H9.55859C9.54172 16.4924 9.52107 16.5 9.5 16.5C9.48933 16.5 9.47878 16.498 9.46875 16.4941L9.44141 16.4775H9.44043C9.02916 16.113 8.62582 15.7599 8.23828 15.4229L7.13184 14.4639C5.07158 12.6844 3.40841 11.2461 2.25293 9.83301C1.11013 8.43542 0.5 7.10469 0.5 5.54785C0.500109 2.61558 2.48942 0.5 5.04688 0.5C5.84849 0.5 6.58989 0.723283 7.26367 1.17188L7.54785 1.37793C8.27305 1.94639 8.76491 2.67981 9.05957 3.22559L9.5 4.04004L9.94043 3.22559C10.1983 2.74794 10.6071 2.12636 11.1914 1.59766L11.4521 1.37793C12.1999 0.791855 13.0371 0.5 13.9531 0.5Z" stroke="#677294"/>
</svg>
