<svg width="59" height="48" viewBox="0 0 59 48" fill="none" xmlns="http://www.w3.org/2000/svg">
<path d="M29.8266 22.87C29.7266 22.86 29.6066 22.86 29.4966 22.87C27.1166 22.79 25.2266 20.84 25.2266 18.44C25.2266 15.99 27.2066 14 29.6666 14C32.1166 14 34.1066 15.99 34.1066 18.44C34.0966 20.84 32.2066 22.79 29.8266 22.87Z" stroke="#8696BB" stroke-width="1.5" stroke-linecap="round" stroke-linejoin="round"/>
<path d="M24.8265 26.56C22.4065 28.18 22.4065 30.82 24.8265 32.43C27.5765 34.27 32.0865 34.27 34.8365 32.43C37.2565 30.81 37.2565 28.17 34.8365 26.56C32.0965 24.73 27.5865 24.73 24.8265 26.56Z" stroke="#8696BB" stroke-width="1.5" stroke-linecap="round" stroke-linejoin="round"/>
</svg>
